<svg xmlns="http://www.w3.org/2000/svg" xmlns:xlink="http://www.w3.org/1999/xlink" preserveAspectRatio="xMidYMid meet" version="1.0" viewBox="43.5 98.4 424.7 284.7" zoomAndPan="magnify" style="fill: rgb(0, 0, 0);" original_string_length="1644" width="371.45646886565754px" height="249.21352183895937px"><g id="__id35_s9mvg26zff"><path d="M118.4,290.7l39.5-148l-26.6,7.2L87.4,317c87.6,0.5,130,29.7,156.2,66C217.7,328.7,175.1,303.2,118.4,290.7z" style="fill: rgb(37, 99, 45);"/></g><g id="__id36_s9mvg26zff"><path d="M424.3,317l-43.9-167.2l-26.6-7.2l39.3,148c-56.6,12.5-99.1,38-125,92.3C294.2,346.8,336.7,317.5,424.3,317z" style="fill: rgb(37, 99, 45);"/></g><g id="__id37_s9mvg26zff"><path d="M71.8,328.9l41.1-156.3l-22.6,6L43.5,355.1c65.2-11.2,147.9-8.6,192.1,27.9C193.3,333.6,127.5,325.5,71.8,328.9 z" style="fill: rgb(37, 99, 45);"/></g><g id="__id38_s9mvg26zff"><path d="M398.7,172.6l41,156.3c-55.6-3.4-121.4,4.7-163.6,54.1c44.2-36.6,126.8-39.2,192.1-27.9l-46.8-176.5 L398.7,172.6z" style="fill: rgb(37, 99, 45);"/></g><g id="__id39_s9mvg26zff"><path d="M378.4,280.6l-24.4-90.4c-48-14.1-90,22.4-92.8,68.4c-1,15.9,2.1,32.8,4.2,50.2c3.6,27.6,2.4,46.5-4.9,74.1 C280.1,333.4,326.4,293.8,378.4,280.6z" style="fill: rgb(37, 99, 45);"/></g><g id="__id40_s9mvg26zff"><path d="M222.4,262.6c2.1-22.6,16.6-43.6,24.2-64c18.5-49.1-25.2-81.7-71.5-73.6l-41.9,155.7 c52,13.2,98.3,52.8,117.8,102.4v-16.1c0-30.4-12.8-49.6-21.4-68.1C223.6,285.5,221.4,274,222.4,262.6z" style="fill: rgb(37, 99, 45);"/></g><g id="__id41_s9mvg26zff"><path d="M266,130.3c0,17.7,14.3,32,32,32c17.5,0,31.8-14.3,31.8-32c0-17.6-14.3-31.9-31.8-31.9 C280.3,98.4,266,112.7,266,130.3z" style="fill: rgb(37, 99, 45);"/></g></svg>